<mxfile host="Electron" modified="2024-05-17T15:34:49.154Z" agent="Mozilla/5.0 (X11; Linux x86_64) AppleWebKit/537.36 (KHTML, like Gecko) draw.io/24.4.0 Chrome/120.0.6099.109 Electron/28.1.0 Safari/537.36" etag="KgDZkDma8EgmV3Jmq3iF" version="24.4.0" type="device">
  <diagram name="Página-1" id="szPnYhFpM0-9Jx-KiwsF">
    <mxGraphModel dx="1364" dy="458" grid="1" gridSize="10" guides="1" tooltips="1" connect="1" arrows="1" fold="1" page="1" pageScale="1" pageWidth="827" pageHeight="583" math="0" shadow="0">
      <root>
        <mxCell id="0" />
        <mxCell id="1" parent="0" />
        <mxCell id="mkkYnr1pyonhyRRinFtK-11" style="edgeStyle=orthogonalEdgeStyle;rounded=0;orthogonalLoop=1;jettySize=auto;html=1;exitX=1;exitY=0.5;exitDx=0;exitDy=0;" edge="1" parent="1" source="mkkYnr1pyonhyRRinFtK-2">
          <mxGeometry relative="1" as="geometry">
            <mxPoint x="280" y="144" as="targetPoint" />
          </mxGeometry>
        </mxCell>
        <mxCell id="mkkYnr1pyonhyRRinFtK-2" value="Inicio de simulación" style="ellipse;whiteSpace=wrap;html=1;fillColor=#f5f5f5;fontColor=#333333;strokeColor=none;" vertex="1" parent="1">
          <mxGeometry x="80" y="114" width="120" height="60" as="geometry" />
        </mxCell>
        <mxCell id="mkkYnr1pyonhyRRinFtK-28" style="edgeStyle=orthogonalEdgeStyle;rounded=0;orthogonalLoop=1;jettySize=auto;html=1;exitX=1;exitY=0.5;exitDx=0;exitDy=0;entryX=0;entryY=0.5;entryDx=0;entryDy=0;" edge="1" parent="1" source="mkkYnr1pyonhyRRinFtK-4" target="mkkYnr1pyonhyRRinFtK-10">
          <mxGeometry relative="1" as="geometry" />
        </mxCell>
        <mxCell id="mkkYnr1pyonhyRRinFtK-4" value="Recibidas correcciones clásicas" style="rounded=0;whiteSpace=wrap;html=1;fillColor=#dae8fc;strokeColor=none;" vertex="1" parent="1">
          <mxGeometry x="310" y="80" width="145" height="50" as="geometry" />
        </mxCell>
        <mxCell id="mkkYnr1pyonhyRRinFtK-8" value="" style="endArrow=none;html=1;rounded=0;strokeWidth=7;" edge="1" parent="1">
          <mxGeometry width="50" height="50" relative="1" as="geometry">
            <mxPoint x="280" y="200" as="sourcePoint" />
            <mxPoint x="280" y="80" as="targetPoint" />
          </mxGeometry>
        </mxCell>
        <mxCell id="mkkYnr1pyonhyRRinFtK-15" style="edgeStyle=orthogonalEdgeStyle;rounded=0;orthogonalLoop=1;jettySize=auto;html=1;exitX=1;exitY=0.5;exitDx=0;exitDy=0;" edge="1" parent="1" source="mkkYnr1pyonhyRRinFtK-9" target="mkkYnr1pyonhyRRinFtK-12">
          <mxGeometry relative="1" as="geometry" />
        </mxCell>
        <mxCell id="mkkYnr1pyonhyRRinFtK-9" value="Recibido qubit en memoria" style="rounded=0;whiteSpace=wrap;html=1;fillColor=#dae8fc;strokeColor=none;" vertex="1" parent="1">
          <mxGeometry x="310" y="150" width="145" height="50" as="geometry" />
        </mxCell>
        <mxCell id="mkkYnr1pyonhyRRinFtK-14" style="edgeStyle=orthogonalEdgeStyle;rounded=0;orthogonalLoop=1;jettySize=auto;html=1;exitX=1;exitY=0.5;exitDx=0;exitDy=0;entryX=0;entryY=0.5;entryDx=0;entryDy=0;" edge="1" parent="1" source="mkkYnr1pyonhyRRinFtK-10" target="mkkYnr1pyonhyRRinFtK-12">
          <mxGeometry relative="1" as="geometry" />
        </mxCell>
        <mxCell id="mkkYnr1pyonhyRRinFtK-10" value="Almacenar correciones" style="rounded=0;whiteSpace=wrap;html=1;fillColor=#dae8fc;strokeColor=none;" vertex="1" parent="1">
          <mxGeometry x="480" y="80" width="145" height="50" as="geometry" />
        </mxCell>
        <mxCell id="mkkYnr1pyonhyRRinFtK-13" style="edgeStyle=orthogonalEdgeStyle;rounded=0;orthogonalLoop=1;jettySize=auto;html=1;exitX=1;exitY=0.5;exitDx=0;exitDy=0;" edge="1" parent="1" source="mkkYnr1pyonhyRRinFtK-12">
          <mxGeometry relative="1" as="geometry">
            <mxPoint x="280" y="114" as="targetPoint" />
            <Array as="points">
              <mxPoint x="810" y="175" />
              <mxPoint x="810" y="40" />
              <mxPoint x="220" y="40" />
              <mxPoint x="220" y="114" />
            </Array>
          </mxGeometry>
        </mxCell>
        <mxCell id="mkkYnr1pyonhyRRinFtK-16" value="NO" style="edgeLabel;html=1;align=center;verticalAlign=middle;resizable=0;points=[];" vertex="1" connectable="0" parent="mkkYnr1pyonhyRRinFtK-13">
          <mxGeometry x="-0.809" y="-2" relative="1" as="geometry">
            <mxPoint as="offset" />
          </mxGeometry>
        </mxCell>
        <mxCell id="mkkYnr1pyonhyRRinFtK-18" style="edgeStyle=orthogonalEdgeStyle;rounded=0;orthogonalLoop=1;jettySize=auto;html=1;exitX=0.5;exitY=1;exitDx=0;exitDy=0;entryX=0.5;entryY=0;entryDx=0;entryDy=0;" edge="1" parent="1" source="mkkYnr1pyonhyRRinFtK-12" target="mkkYnr1pyonhyRRinFtK-17">
          <mxGeometry relative="1" as="geometry" />
        </mxCell>
        <mxCell id="mkkYnr1pyonhyRRinFtK-19" value="SI" style="edgeLabel;html=1;align=center;verticalAlign=middle;resizable=0;points=[];" vertex="1" connectable="0" parent="mkkYnr1pyonhyRRinFtK-18">
          <mxGeometry x="-0.1917" y="-1" relative="1" as="geometry">
            <mxPoint as="offset" />
          </mxGeometry>
        </mxCell>
        <mxCell id="mkkYnr1pyonhyRRinFtK-12" value="Correcciones recibidas y qubit en memoria?" style="rhombus;whiteSpace=wrap;html=1;" vertex="1" parent="1">
          <mxGeometry x="690" y="135" width="100" height="80" as="geometry" />
        </mxCell>
        <mxCell id="mkkYnr1pyonhyRRinFtK-22" style="edgeStyle=orthogonalEdgeStyle;rounded=0;orthogonalLoop=1;jettySize=auto;html=1;exitX=1;exitY=0.5;exitDx=0;exitDy=0;entryX=0;entryY=0.5;entryDx=0;entryDy=0;" edge="1" parent="1" source="mkkYnr1pyonhyRRinFtK-17" target="mkkYnr1pyonhyRRinFtK-20">
          <mxGeometry relative="1" as="geometry" />
        </mxCell>
        <mxCell id="mkkYnr1pyonhyRRinFtK-17" value="Recibido qubit en memoria" style="rounded=0;whiteSpace=wrap;html=1;fillColor=#dae8fc;strokeColor=none;" vertex="1" parent="1">
          <mxGeometry x="190" y="267" width="145" height="50" as="geometry" />
        </mxCell>
        <mxCell id="mkkYnr1pyonhyRRinFtK-23" style="edgeStyle=orthogonalEdgeStyle;rounded=0;orthogonalLoop=1;jettySize=auto;html=1;exitX=1;exitY=0.5;exitDx=0;exitDy=0;entryX=0;entryY=0.5;entryDx=0;entryDy=0;" edge="1" parent="1" source="mkkYnr1pyonhyRRinFtK-20" target="mkkYnr1pyonhyRRinFtK-21">
          <mxGeometry relative="1" as="geometry" />
        </mxCell>
        <mxCell id="mkkYnr1pyonhyRRinFtK-20" value="Aplicar corecciones" style="rounded=0;whiteSpace=wrap;html=1;fillColor=#dae8fc;strokeColor=none;" vertex="1" parent="1">
          <mxGeometry x="380" y="267" width="145" height="50" as="geometry" />
        </mxCell>
        <mxCell id="mkkYnr1pyonhyRRinFtK-25" style="edgeStyle=orthogonalEdgeStyle;rounded=0;orthogonalLoop=1;jettySize=auto;html=1;exitX=1;exitY=0.5;exitDx=0;exitDy=0;" edge="1" parent="1" source="mkkYnr1pyonhyRRinFtK-21">
          <mxGeometry relative="1" as="geometry">
            <mxPoint x="280" y="190" as="targetPoint" />
            <Array as="points">
              <mxPoint x="790" y="292" />
              <mxPoint x="790" y="370" />
              <mxPoint x="150" y="370" />
              <mxPoint x="150" y="190" />
              <mxPoint x="280" y="190" />
            </Array>
          </mxGeometry>
        </mxCell>
        <mxCell id="mkkYnr1pyonhyRRinFtK-21" value="Enviar señal SUCCESS a protocolo de teleportación" style="rounded=0;whiteSpace=wrap;html=1;fillColor=#dae8fc;strokeColor=none;" vertex="1" parent="1">
          <mxGeometry x="570" y="267" width="145" height="50" as="geometry" />
        </mxCell>
        <mxCell id="mkkYnr1pyonhyRRinFtK-26" style="edgeStyle=orthogonalEdgeStyle;rounded=0;orthogonalLoop=1;jettySize=auto;html=1;entryX=0;entryY=0.5;entryDx=0;entryDy=0;" edge="1" parent="1" target="mkkYnr1pyonhyRRinFtK-9">
          <mxGeometry relative="1" as="geometry">
            <mxPoint x="290" y="154" as="targetPoint" />
            <mxPoint x="280" y="175" as="sourcePoint" />
          </mxGeometry>
        </mxCell>
        <mxCell id="mkkYnr1pyonhyRRinFtK-27" style="edgeStyle=orthogonalEdgeStyle;rounded=0;orthogonalLoop=1;jettySize=auto;html=1;entryX=0;entryY=0.5;entryDx=0;entryDy=0;" edge="1" parent="1">
          <mxGeometry relative="1" as="geometry">
            <mxPoint x="312" y="100" as="targetPoint" />
            <mxPoint x="282" y="100" as="sourcePoint" />
          </mxGeometry>
        </mxCell>
      </root>
    </mxGraphModel>
  </diagram>
</mxfile>
